<svg xmlns="http://www.w3.org/2000/svg" version="1.1" xmlns:xlink="http://www.w3.org/1999/xlink" xmlns:svgjs="http://svgjs.dev/svgjs" viewBox="0 0 9.343899502384643 1.7331607275983925"><g transform="matrix(1,0,0,1,2.4206297322852914,0.33708036379919626)"><rect width="9.343899502384643" height="9.343899502384643" x="-2.4206297322852914" y="-4.142449751192322" fill="#ffffff"></rect><g><path d=" M 0.1335 0.26024999999999987 Q 0.2025 0.1379999999999999 0.32175 0.06899999999999995 Q 0.441 0 0.5865 0 Q 0.7575000000000001 0 0.885 0.0824999999999999 Q 1.0125 0.16499999999999992 1.071 0.3164999999999999 L 0.9075 0.3164999999999999 Q 0.864 0.22199999999999998 0.78225 0.17099999999999993 Q 0.7005 0.11999999999999988 0.5865 0.11999999999999988 Q 0.47700000000000004 0.11999999999999988 0.39 0.17099999999999993 Q 0.303 0.22199999999999998 0.2535 0.31575 Q 0.20400000000000001 0.4095 0.20400000000000001 0.5355 Q 0.20400000000000001 0.6599999999999999 0.2535 0.7537499999999999 Q 0.303 0.8474999999999999 0.39 0.8985 Q 0.47700000000000004 0.9494999999999999 0.5865 0.9494999999999999 Q 0.7005 0.9494999999999999 0.78225 0.8992499999999999 Q 0.864 0.849 0.9075 0.7545 L 1.071 0.7545 Q 1.0125 0.9045 0.885 0.98625 Q 0.7575000000000001 1.0679999999999998 0.5865 1.0679999999999998 Q 0.441 1.0679999999999998 0.32175 0.9997499999999999 Q 0.2025 0.9315 0.1335 0.8099999999999999 Q 0.0645 0.6884999999999999 0.0645 0.5355 Q 0.0645 0.38249999999999995 0.1335 0.26024999999999987 M 1.288458984375 0.42374999999999996 Q 1.3394589843750002 0.3284999999999999 1.428708984375 0.2759999999999999 Q 1.517958984375 0.22349999999999992 1.627458984375 0.22349999999999992 Q 1.7354589843750001 0.22349999999999992 1.814958984375 0.2699999999999999 Q 1.8944589843750002 0.3164999999999999 1.933458984375 0.3869999999999999 L 1.933458984375 0.23699999999999988 L 2.071458984375 0.23699999999999988 L 2.071458984375 1.059 L 1.933458984375 1.059 L 1.933458984375 0.9059999999999999 Q 1.892958984375 0.978 1.8127089843750002 1.02525 Q 1.732458984375 1.0725 1.6259589843750002 1.0725 Q 1.5164589843750003 1.0725 1.427958984375 1.0185 Q 1.3394589843750002 0.9644999999999999 1.288458984375 0.867 Q 1.2374589843750001 0.7695 1.2374589843750001 0.6449999999999999 Q 1.2374589843750001 0.5189999999999999 1.288458984375 0.42374999999999996 M 1.895958984375 0.48449999999999993 Q 1.8584589843750001 0.4155 1.7947089843750001 0.3787499999999999 Q 1.7309589843750002 0.34199999999999997 1.6544589843750002 0.34199999999999997 Q 1.5779589843750002 0.34199999999999997 1.5149589843750002 0.3779999999999999 Q 1.451958984375 0.4139999999999999 1.4144589843750002 0.4829999999999999 Q 1.376958984375 0.5519999999999999 1.376958984375 0.6449999999999999 Q 1.376958984375 0.7394999999999999 1.4144589843750002 0.8092499999999999 Q 1.451958984375 0.879 1.5149589843750002 0.91575 Q 1.5779589843750002 0.9524999999999999 1.6544589843750002 0.9524999999999999 Q 1.7309589843750002 0.9524999999999999 1.7947089843750001 0.91575 Q 1.8584589843750001 0.879 1.895958984375 0.8092499999999999 Q 1.933458984375 0.7394999999999999 1.933458984375 0.6464999999999999 Q 1.933458984375 0.5534999999999999 1.895958984375 0.48449999999999993 M 2.5567470703125004 0.2609999999999999 Q 2.6234970703125002 0.22199999999999998 2.7194970703125003 0.22199999999999998 L 2.7194970703125003 0.3629999999999999 L 2.6834970703125003 0.3629999999999999 Q 2.4539970703125 0.3629999999999999 2.4539970703125 0.6119999999999999 L 2.4539970703125 1.059 L 2.3174970703125 1.059 L 2.3174970703125 0.23699999999999988 L 2.4539970703125 0.23699999999999988 L 2.4539970703125 0.37049999999999994 Q 2.4899970703125005 0.29999999999999993 2.5567470703125004 0.2609999999999999 M 3.0584758300781254 0.3494999999999999 L 3.0584758300781254 0.834 Q 3.0584758300781254 0.8939999999999999 3.0839758300781255 0.91875 Q 3.1094758300781256 0.9434999999999999 3.1724758300781253 0.9434999999999999 L 3.2729758300781255 0.9434999999999999 L 3.2729758300781255 1.059 L 3.1499758300781253 1.059 Q 3.0359758300781254 1.059 2.9789758300781255 1.0065 Q 2.9219758300781256 0.954 2.9219758300781256 0.834 L 2.9219758300781256 0.3494999999999999 L 2.8154758300781255 0.3494999999999999 L 2.8154758300781255 0.23699999999999988 L 2.9219758300781256 0.23699999999999988 L 2.9219758300781256 0.030000000000000027 L 3.0584758300781254 0.030000000000000027 L 3.0584758300781254 0.23699999999999988 L 3.2729758300781255 0.23699999999999988 L 3.2729758300781255 0.3494999999999999 L 3.0584758300781254 0.3494999999999999 M 4.2749963378906255 1.059 L 4.138496337890626 1.059 L 3.5894963378906253 0.22649999999999992 L 3.5894963378906253 1.059 L 3.4529963378906254 1.059 L 3.4529963378906254 0.01200000000000001 L 3.5894963378906253 0.01200000000000001 L 4.138496337890626 0.843 L 4.138496337890626 0.01200000000000001 L 4.2749963378906255 0.01200000000000001 L 4.2749963378906255 1.059 M 4.671750732421876 1.02 Q 4.578000732421876 0.9674999999999999 4.524750732421876 0.8707499999999999 Q 4.471500732421876 0.7739999999999999 4.471500732421876 0.6464999999999999 Q 4.471500732421876 0.5205 4.526250732421876 0.42374999999999996 Q 4.581000732421876 0.32699999999999996 4.6755007324218765 0.2752499999999999 Q 4.770000732421876 0.22349999999999992 4.8870007324218765 0.22349999999999992 Q 5.004000732421876 0.22349999999999992 5.098500732421876 0.2752499999999999 Q 5.193000732421876 0.32699999999999996 5.247750732421876 0.42299999999999993 Q 5.302500732421876 0.5189999999999999 5.302500732421876 0.6464999999999999 Q 5.302500732421876 0.7739999999999999 5.246250732421876 0.8707499999999999 Q 5.190000732421876 0.9674999999999999 5.094000732421876 1.02 Q 4.998000732421876 1.0725 4.881000732421876 1.0725 Q 4.765500732421876 1.0725 4.671750732421876 1.02 M 5.019000732421876 0.9179999999999999 Q 5.083500732421876 0.8835 5.123250732421877 0.8145 Q 5.163000732421876 0.7454999999999999 5.163000732421876 0.6464999999999999 Q 5.163000732421876 0.5474999999999999 5.124000732421876 0.4784999999999999 Q 5.085000732421876 0.4095 5.022000732421876 0.3757499999999999 Q 4.959000732421876 0.34199999999999997 4.885500732421876 0.34199999999999997 Q 4.810500732421876 0.34199999999999997 4.748250732421876 0.3757499999999999 Q 4.686000732421876 0.4095 4.648500732421876 0.4784999999999999 Q 4.611000732421876 0.5474999999999999 4.611000732421876 0.6464999999999999 Q 4.611000732421876 0.7469999999999999 4.647750732421876 0.816 Q 4.684500732421876 0.8849999999999999 4.7460007324218765 0.91875 Q 4.807500732421876 0.9524999999999999 4.881000732421876 0.9524999999999999 Q 4.954500732421876 0.9524999999999999 5.019000732421876 0.9179999999999999 M 6.592522705078126 0.23699999999999988 L 6.3360227050781255 1.059 L 6.1950227050781255 1.059 L 5.997022705078126 0.4065 L 5.799022705078126 1.059 L 5.6580227050781255 1.059 L 5.4000227050781255 0.23699999999999988 L 5.5395227050781255 0.23699999999999988 L 5.7285227050781256 0.9269999999999999 L 5.932522705078126 0.23699999999999988 L 6.072022705078126 0.23699999999999988 L 6.271522705078126 0.9284999999999999 L 6.457522705078126 0.23699999999999988 L 6.592522705078126 0.23699999999999988" fill="#102036" fill-rule="nonzero"></path></g><g></g><g clip-path="url(#SvgjsClipPath1002)"><g clip-path="url(#a1561a031-d3bf-49fe-9893-dd423d0ff7f81f79f12d-677d-4565-9c91-6a36d67e40db)"><path d=" M -0.426550033672372 0.6864566488441181 C -0.44854700862299235 0.677302232764813 -0.47380919507134767 0.6876708709470363 -0.4829772540956292 0.7096860364909587 C -0.5341382977579152 0.8327908766632327 -0.635500831285799 0.9285234215641024 -0.7610295680155841 0.9723718467189257 C -0.8104716006108172 0.9896756485975923 -0.8623602680051894 0.9984435145692266 -0.9152130368445748 0.9984435145692266 C -1.0495050918976687 0.9984435145692266 -1.1707090150698685 0.9413841710287197 -1.2561502318100488 0.8503266086065017 C -1.2594654674393653 0.8442100216086551 -1.2641131640280636 0.8388574395294984 -1.2698886774014948 0.8349919384527924 C -1.3045615730018976 0.7946637902331549 -1.3321375599018355 0.7487427677164065 -1.3514416548233412 0.6991855165072949 C -1.3516599419429673 0.6896400026719935 -1.3550524875938175 0.6809312561285912 -1.360473284397857 0.6738733059273585 C -1.375612541641409 0.6272479821078664 -1.3833165958544784 0.5785298145792022 -1.3833024789920505 0.5295082098332009 C -1.3833024789920505 0.4128792208764911 -1.3404727270621473 0.30611408113786986 -1.269856843863216 0.2239971953236566 C -1.2641131640280634 0.22013169424695056 -1.2595109439226202 0.21481094570607276 -1.2561502318100488 0.20868071576324956 C -1.1707090150698685 0.1176049627477293 -1.0495050918976687 0.06057745274550112 -0.9152130368445748 0.06057745274550112 C -0.8057193081106315 0.06057745274550112 -0.6991951937332639 0.09923246351256171 -0.6152910821271147 0.16943905836219475 C -0.5970277264517603 0.1847373473292997 -0.569855527706679 0.1823043554751376 -0.5545708816845509 0.16403645215145732 C -0.5392816880140971 0.14569578645456846 -0.5417283228132357 0.11843263474297691 -0.5599916784885905 0.10311615518256978 C -0.6594032708848192 0.019966953198459834 -0.7855504877868771 -0.02584150838466981 -0.9152130368445748 -0.02584150838466981 L -1.323746476520824 -0.02584150838466981 C -1.3475852490432865 -0.02584150838466981 -1.3668854685368634 -0.006504907704488409 -1.3668854685368634 0.017361150707927327 C -1.3668854685368634 0.041227209120343056 -1.3475852490432865 0.06057745274550112 -1.323746476520824 0.06057745274550112 L -1.2116469452963483 0.06057745274550112 C -1.249161253158162 0.08447183035999231 -1.2836848204644493 0.11276488078762772 -1.314482916881706 0.14485447151434433 L -1.7023381996217406 0.14485447151434433 C -1.7261633291992264 0.1448544715143442 -1.7454635486928036 0.1642047151395022 -1.7454635486928036 0.1880707735519179 C -1.7454635486928036 0.2119550225576358 -1.7261633291992267 0.2312916232378172 -1.7023381996217406 0.2312916232378172 L -1.3824657117001518 0.2312916232378172 C -1.3996260395001525 0.25804761255972763 -1.4144282535729897 0.28624455221677425 -1.4267052346109712 0.31556409435833416 L -1.8604872177905991 0.31556409435833416 C -1.8843259903130618 0.3155640943583347 -1.9036080192133369 0.33491888563181815 -1.9036080192133369 0.3588167775825126 C -1.9036080192133369 0.3826828359949284 -1.8843259903130618 0.4020012460818076 -1.8604872177905993 0.4020012460818076 L -1.4546641765163701 0.4020012460818076 C -1.4611605169851325 0.4297192490739355 -1.4655253696393156 0.4578939092576079 -1.4677204748589854 0.48627826485065007 L -2.0662819474661043 0.48627826485065007 C -2.090102529395265 0.48627826485065073 -2.109393653592191 0.5056421514207854 -2.109393653592191 0.5295082098332011 C -2.109393653592191 0.5533424347073381 -2.090102529395265 0.5727108689257981 -2.0662819474661043 0.5727108689257981 L -1.4677204748589858 0.5727108689257981 C -1.4655271038708932 0.6010909250106254 -1.4611622266495083 0.6292611827727435 -1.4546641765163706 0.6569742447496635 L -1.8604872177905993 0.6569742447496635 C -1.884325990313062 0.6569742447496647 -1.9036080192133369 0.6763381313197991 -1.9036080192133369 0.7002041897322149 C -1.9036080192133369 0.7240702481446306 -1.8843259903130618 0.7434204917697887 -1.8604872177905993 0.7434204917697887 L -1.4267507110942268 0.7434204917697887 C -1.4144310255342192 0.7727312515873912 -1.399614831612085 0.8009288816920238 -1.3824657117001524 0.8277020581869563 L -1.7023381996217408 0.8277020581869563 C -1.7261633291992267 0.8277020581869573 -1.7454635486928038 0.8470659447570918 -1.7454635486928038 0.8709047172795544 C -1.7454635486928038 0.8947844186369468 -1.7261633291992267 0.9141346622621047 -1.7023381996217408 0.9141346622621047 L -1.3145011074750084 0.9141346622621047 C -1.2836945926956105 0.9462316093935499 -1.2491654137286954 0.9745349409082352 -1.2116469452963488 0.9984435145692266 L -1.3237464765208244 0.9984435145692266 C -1.347585249043287 0.9984435145692266 -1.3668854685368639 1.0177664723044315 -1.3668854685368639 1.0416325307168472 C -1.3668854685368639 1.065498589129263 -1.347585249043287 1.0848488327544206 -1.3237464765208244 1.0848488327544206 L -0.9152130368445752 1.0848488327544206 C -0.8526510388301689 1.0848488327544206 -0.7912486911387748 1.0744620039788955 -0.7326204089259578 1.0539930388656553 C -0.5839532375158427 1.0020452520430516 -0.46389532172167813 0.8886860222324023 -0.4033479319154847 0.7429293457506307 C -0.39416168229790083 0.7209050849100573 -0.40457124931505395 0.6956156125717486 -0.426550033672372 0.6864566488441181" fill="#231f20" transform="matrix(1,0,0,1,0,0)" fill-rule="nonzero"></path></g><g clip-path="url(#a1561a031-d3bf-49fe-9893-dd423d0ff7f81f79f12d-677d-4565-9c91-6a36d67e40db)"><path d=" M -0.6105797184618593 0.36132707945820886 C -0.6107661720432063 0.36076771871416785 -0.6109526256245534 0.36016288148687153 -0.6111981986341324 0.3595534966112496 C -0.612853171232977 0.3546474991393487 -0.6153711859434703 0.3500765709064777 -0.6186336036463846 0.34605607638105723 C -0.6190519872923339 0.34559221625185244 -0.6194385374000044 0.3451101655293456 -0.6198432781009773 0.3446144718618621 C -0.6214713362015194 0.34283179371825173 -0.6232358237518274 0.3410263773330137 -0.6251867648834828 0.33950746279228455 C -0.6254823620246426 0.3392891756726588 -0.6257734115174769 0.33913455562959055 -0.62605536571366 0.3389162685099648 C -0.6272357412045397 0.33800205957964385 -0.6284654599638513 0.33715340181858805 -0.6297389608573445 0.33637413309598996 L -0.9049126133872349 0.1709716158479005 C -0.9181351504428785 0.1630560018871322 -0.9345745194804325 0.1627890896223158 -0.9480470577549491 0.17027127800576786 L -1.2286096735506 0.32639204502143715 C -1.2298489411713147 0.3271034765945738 -1.2310482870747923 0.3278822923521485 -1.232202315727774 0.32872498861243743 C -1.232575222890468 0.3289705616220163 -1.232948130053162 0.3291752057966655 -1.2333028466225537 0.3294207788062445 C -1.235244675938925 0.33087754719391166 -1.2370582295490469 0.3324978782298005 -1.2387236434265936 0.3342640242729409 C -1.2391738606108214 0.33475971794042436 -1.2396240777950496 0.33522812571795463 -1.2400879379242542 0.33578293881367005 C -1.241729638969773 0.33767930816541886 -1.243357697070315 0.3397257499119103 -1.2446264909531397 0.34192681170146993 C -1.2446264909531397 0.34192681170146993 -1.2446264909531397 0.3419450022947721 -1.2446856103813717 0.3419586452397487 C -1.2459907854508008 0.3441187781943786 -1.2469958157307444 0.34648810297198307 -1.2479098930441772 0.3488801659912153 C -1.2481554660537562 0.3494986461634883 -1.2483873961183585 0.35013531692906336 -1.2486238738312863 0.3507583447496619 C -1.2493963396563796 0.3530666285331578 -1.249960977899338 0.35543932670235384 -1.2503110513600606 0.35784812848917336 C -1.2503701707882924 0.3582847027284249 -1.2503701707882924 0.3586257763528401 -1.2504020043265713 0.35906235059209163 C -1.2506203259517759 0.36051133748718706 -1.2507494191649768 0.36197236891188495 -1.250788554434242 0.36343718828125776 L -1.2561183982717705 0.6848558766335291 C -1.2563913028876375 0.7002801308673082 -1.2484061772739972 0.7146758991288593 -1.2351764777326748 0.7226104530321334 L -0.9599891822578082 0.8880129702802227 C -0.9587522219132623 0.8887587846056108 -0.9574334038988566 0.8893636218329072 -0.9561509670710553 0.8899684590602035 C -0.9557462263700827 0.890141269696574 -0.9554051527456675 0.8903913903544785 -0.954986769099718 0.8905460103975467 C -0.9527132103051095 0.8915193929907252 -0.9503612367634608 0.8922983130769633 -0.9479561047884386 0.8928744063402214 C -0.9473376246161656 0.8929971928450109 -0.946714596795567 0.8931199793498005 -0.9460824736783175 0.8932745993928686 C -0.9438359354055026 0.8937066259837947 -0.9415575635944085 0.8939567466416991 -0.9392973823766169 0.8940386043115588 C -0.9390336187737358 0.8940386043115588 -0.9388016887091335 0.8941113666847674 -0.9385242821612758 0.8941432002230462 C -0.9382741615033712 0.8941613908163484 -0.9380558743837455 0.8941613908163484 -0.9378103013741665 0.8941613908163484 L -0.9377784678358878 0.8941613908163484 C -0.935254523015215 0.8941613908163484 -0.9327305781945423 0.8938203171919329 -0.9302384669121482 0.8933973858976582 C -0.9296154390915496 0.8932745993928686 -0.9290287924575555 0.8932154799646366 -0.9284103122852825 0.8930290263832896 C -0.9260687112760155 0.892521541154047 -0.9237733425628283 0.8918203052516088 -0.9215479109620479 0.8909325605052173 C -0.9211113367227963 0.890759749868847 -0.9207247866151258 0.8905460103975467 -0.9202927600241999 0.8903595568161997 C -0.9191603955911412 0.8898320296104375 -0.9179825546748273 0.8893636218329072 -0.9168865714283729 0.8887314987156576 L -0.6363375985776984 0.7326653034798947 C -0.6228477712994471 0.7251511895547926 -0.6143837613752876 0.711018511231386 -0.6141268841557777 0.6955792313851442 L -0.608828873856528 0.3741241618462687 C -0.6087833973732724 0.37261889025051614 -0.6089061838780618 0.3711318092480656 -0.609033518031177 0.36967656178389396 C -0.609033518031177 0.36930365462119996 -0.609033518031177 0.36893074745850596 -0.6090789945144321 0.3685760308891141 C -0.6093668615270367 0.36612056938260196 -0.6098690176327404 0.36369500322353554 -0.6105797184618593 0.361327079458209 M -0.9279419045077519 0.25791810418383354 L -0.7381685398831124 0.37198676713326645 L -0.9316164043547854 0.4796023171087631 L -1.121421602517704 0.36557913064258557 Z M -1.1657839119333127 0.43970579834883106 L -0.975992356715371 0.5537335324633342 L -0.9796759518590556 0.7754041024432871 L -1.1694720547253228 0.6613490824388308 Z M -0.8934343490135808 0.77682751636918 L -0.8897780397598494 0.5551569463892271 L -0.6962983417498976 0.4475413964137305 L -0.6999864845419075 0.6691983234487069 Z" fill="#f2551f" transform="matrix(1,0,0,1,0,0)" fill-rule="nonzero"></path></g></g></g><defs><clipPath id="SvgjsClipPath1002"><path d=" M -2.1093936535921904 -0.025844285106095266 h 1.7093936535921905 v 1.1106885702121905 h -1.7093936535921905 Z"></path></clipPath><clipPath id="a1561a031-d3bf-49fe-9893-dd423d0ff7f81f79f12d-677d-4565-9c91-6a36d67e40db"><path d=" M -2.1093936535921904 1.084844285106095 L -0.4000054103962154 1.084844285106095 L -0.4000054103962154 -0.025841508384669656 L -2.1093936535921904 -0.025841508384669656 Z"></path></clipPath></defs></svg>